<?xml version="1.0" encoding="UTF-8" standalone="no"?>
<!DOCTYPE svg PUBLIC "-//W3C//DTD SVG 1.1//EN" "http://www.w3.org/Graphics/SVG/1.1/DTD/svg11.dtd">
<svg width="100%" height="100%" viewBox="0 0 308 159" version="1.1" xmlns="http://www.w3.org/2000/svg" xmlns:xlink="http://www.w3.org/1999/xlink" xml:space="preserve" style="fill-rule:evenodd;clip-rule:evenodd;stroke-linecap:square;stroke-miterlimit:1.5;">
    <g transform="matrix(1,0,0,1,-2646.74,-1250.69)">
        <g transform="matrix(1,0,0,10.6211,1893.88,23.0291)">
            <g id="Button" transform="matrix(1.56287,0,0,1.47295,-133.935,19.3752)">
                <g transform="matrix(0.611071,0,0,0.097064,249.591,3.02244)">
                    <rect x="522" y="643" width="318" height="102" style="fill:none;stroke:rgb(254,58,36);stroke-width:1.58px;"/>
                </g>
                <g transform="matrix(0.530147,0,0,0.0861413,304.7,10.5988)">
                    <rect x="522" y="643" width="318" height="102" style="fill:none;stroke:rgb(254,58,36);stroke-width:1.79px;"/>
                </g>
                <g transform="matrix(0.235893,0,0,0.0236657,455.224,52.9597)">
                    <text x="735.601px" y="661px" style="font-family:'CenturyGothic', 'Century Gothic', sans-serif;font-size:54.413px;fill:rgb(254,58,36);">АКАДЕМИЯ</text>
                    <text x="667px" y="715.413px" style="font-family:'CenturyGothic', 'Century Gothic', sans-serif;font-size:54.413px;fill:rgb(254,58,36);">ЭРОТИЧЕСКОГО</text>
                    <text x="708.913px" y="769.827px" style="font-family:'CenturyGothic', 'Century Gothic', sans-serif;font-size:54.413px;fill:rgb(254,58,36);">МАСТЕРСТВА</text>
                    <text x="700.49px" y="878.653px" style="font-family:'CenturyGothic', 'Century Gothic', sans-serif;font-size:54.413px;fill:rgb(254,58,36);">ЕВЫ АДДАМС</text>
                </g>
                <g transform="matrix(0.00864371,-0.106143,0.682246,0.000554472,253.274,405.841)">
                    <path d="M3172,465C3172,465 3174,467.689 3174,471C3174,474.311 3172,477 3172,477C3172,477 3170,474.311 3170,471C3170,467.689 3172,465 3172,465Z" style="fill:none;stroke:rgb(254,58,36);stroke-width:0.72px;"/>
                </g>
                <g transform="matrix(0.00864371,-0.106143,0.682246,0.000554472,380.76,405.834)">
                    <path d="M3172,465C3172,465 3174,467.689 3174,471C3174,474.311 3172,477 3172,477C3172,477 3170,474.311 3170,471C3170,467.689 3172,465 3172,465Z" style="fill:none;stroke:rgb(254,58,36);stroke-width:0.72px;"/>
                </g>
            </g>
        </g>
    </g>
</svg>
