<?xml version="1.0" encoding="UTF-8" standalone="no"?><!DOCTYPE svg PUBLIC "-//W3C//DTD SVG 1.1//EN" "http://www.w3.org/Graphics/SVG/1.1/DTD/svg11.dtd"><svg width="100%" height="100%" viewBox="0 0 69 69" version="1.1" xmlns="http://www.w3.org/2000/svg" xmlns:xlink="http://www.w3.org/1999/xlink" xml:space="preserve" style="fill-rule:evenodd;clip-rule:evenodd;stroke-linecap:square;stroke-miterlimit:1.5;"><g id="vk"><circle cx="34.057" cy="34.057" r="33.155" style="fill:none;stroke:#fff;stroke-width:1px;"/><clipPath id="_clip1"><rect id="vk1" x="16.518" y="18.518" width="35.078" height="35.078"/></clipPath><g clip-path="url(#_clip1)"><path id="XMLID_807_" d="M46.707,38.753c1.164,1.136 2.392,2.205 3.436,3.456c0.461,0.555 0.897,1.129 1.231,1.774c0.473,0.917 0.045,1.926 -0.777,1.98l-5.111,-0.002c-1.318,0.109 -2.369,-0.421 -3.253,-1.322c-0.708,-0.721 -1.363,-1.488 -2.043,-2.233c-0.279,-0.304 -0.571,-0.591 -0.92,-0.817c-0.697,-0.453 -1.303,-0.315 -1.702,0.413c-0.406,0.74 -0.498,1.559 -0.538,2.384c-0.054,1.204 -0.418,1.52 -1.627,1.575c-2.583,0.122 -5.035,-0.269 -7.312,-1.572c-2.008,-1.149 -3.565,-2.771 -4.92,-4.607c-2.639,-3.575 -4.66,-7.504 -6.476,-11.542c-0.409,-0.91 -0.11,-1.399 0.894,-1.416c1.667,-0.032 3.334,-0.03 5.003,-0.002c0.678,0.01 1.126,0.398 1.388,1.038c0.902,2.218 2.006,4.328 3.391,6.284c0.369,0.521 0.745,1.041 1.281,1.408c0.592,0.406 1.043,0.271 1.322,-0.389c0.177,-0.419 0.255,-0.869 0.295,-1.318c0.132,-1.542 0.149,-3.082 -0.083,-4.619c-0.142,-0.959 -0.682,-1.58 -1.639,-1.762c-0.489,-0.092 -0.416,-0.274 -0.18,-0.553c0.411,-0.481 0.798,-0.78 1.568,-0.78l5.775,0c0.909,0.18 1.111,0.588 1.236,1.503l0.005,6.415c-0.01,0.354 0.176,1.405 0.814,1.64c0.511,0.167 0.848,-0.242 1.154,-0.566c1.383,-1.467 2.37,-3.202 3.251,-4.998c0.391,-0.789 0.728,-1.609 1.054,-2.429c0.242,-0.608 0.621,-0.907 1.306,-0.894l5.558,0.005c0.165,0 0.332,0.003 0.491,0.03c0.937,0.159 1.194,0.562 0.904,1.477c-0.456,1.435 -1.342,2.631 -2.21,3.832c-0.927,1.283 -1.918,2.522 -2.837,3.812c-0.845,1.178 -0.778,1.772 0.271,2.795Z" style="fill:#fff;"/></g></g></svg>